<svg width="1460" height="168" viewBox="0 0 1460 168" fill="none" xmlns="http://www.w3.org/2000/svg">
<rect width="1496.46" height="80.9947" transform="matrix(-0.999318 0.0369385 0.0329728 0.999456 1477.33 31)" fill="#CCF32F"/>
<rect width="1496.46" height="80.9947" transform="matrix(0.999318 0.0369385 -0.0329728 0.999456 -17.3293 0)" fill="#141B34"/>
<path d="M114.366 41.2798C116.535 41.36 118.215 42.0761 119.404 43.4283C120.593 44.7805 121.141 46.8742 121.048 49.7093L108.291 49.2378L108.241 48.5324L117.152 48.8618C117.216 47.6547 117.154 46.5417 116.966 45.5227C116.778 44.479 116.46 43.6404 116.012 43.0067C115.564 42.3731 114.958 42.0422 114.194 42.0139C113.134 41.9747 112.191 42.5076 111.365 43.6125C110.564 44.6936 110.037 46.4637 109.783 48.9226L109.887 49.1116C109.851 49.4559 109.814 49.8371 109.776 50.2553C109.738 50.6488 109.713 51.0428 109.7 51.4373C109.644 53.1383 109.855 54.5778 110.335 55.7556C110.814 56.9335 111.463 57.8337 112.282 58.4564C113.101 59.0544 113.942 59.3693 114.805 59.4012C115.47 59.4258 116.115 59.3509 116.737 59.1764C117.385 58.9783 118.001 58.6431 118.584 58.171C119.168 57.6742 119.697 56.9903 120.17 56.1192L120.9 56.4424C120.576 57.2696 120.093 58.0787 119.45 58.8694C118.807 59.6602 117.996 60.2967 117.018 60.7789C116.04 61.2364 114.91 61.4415 113.628 61.3941C111.903 61.3303 110.412 60.8926 109.155 60.081C107.9 59.2447 106.951 58.0865 106.308 56.6065C105.666 55.1264 105.378 53.3879 105.444 51.391C105.516 49.1969 105.936 47.3365 106.702 45.8097C107.468 44.283 108.505 43.1365 109.814 42.3704C111.148 41.5804 112.665 41.2169 114.366 41.2798ZM130.589 42.3978L130.563 43.1744C130.095 43.157 129.709 43.2539 129.406 43.4648C129.103 43.6758 129.068 43.983 129.301 44.3866L138.661 59.1723C139.012 59.753 139.343 60.1972 139.654 60.5048C139.99 60.7888 140.378 60.9883 140.818 61.1033L140.793 61.8799C140.498 61.8443 140.055 61.8032 139.464 61.7567C138.899 61.6864 138.32 61.6404 137.729 61.6185C136.915 61.5884 136.064 61.5816 135.175 61.5982C134.287 61.59 133.633 61.5905 133.213 61.5997L133.239 60.8231C133.732 60.8413 134.13 60.745 134.433 60.534C134.737 60.2984 134.759 59.9907 134.5 59.6109L125.141 44.8252C124.694 44.1422 124.327 43.672 124.04 43.4146C123.778 43.1333 123.425 42.9599 122.983 42.8942L123.009 42.1176C123.329 42.1541 123.796 42.2084 124.41 42.2805C125.026 42.3279 125.629 42.3626 126.221 42.3844C127.034 42.4145 127.86 42.4327 128.699 42.439C129.564 42.4216 130.194 42.4079 130.589 42.3978ZM130.676 52.1015C130.676 52.1015 130.686 52.176 130.705 52.3248C130.75 52.4745 130.794 52.6366 130.838 52.811C130.906 52.9863 130.94 53.074 130.94 53.074L128.28 56.2709C127.586 57.1091 127.203 57.8602 127.132 58.524C127.062 59.1631 127.267 59.6644 127.749 60.0278C128.231 60.3911 128.901 60.6258 129.762 60.7316L129.737 61.4712C129.294 61.4301 128.79 61.3991 128.223 61.3782C127.656 61.3326 127.102 61.2997 126.56 61.2797C126.019 61.235 125.551 61.2054 125.156 61.1908C124.589 61.1698 124.083 61.1635 123.639 61.1717C123.195 61.1553 122.788 61.165 122.416 61.2006L122.441 60.461C122.937 60.3806 123.438 60.1523 123.944 59.7761C124.476 59.3761 125.101 58.7574 125.819 57.9201L130.676 52.1015ZM140.572 42.7668L140.548 43.5064C140.051 43.5868 139.512 43.8384 138.931 44.2612C138.374 44.6849 137.786 45.2926 137.168 46.0843L132.767 51.5494C132.767 51.5494 132.745 51.4746 132.701 51.3248C132.682 51.1513 132.65 50.9897 132.605 50.84C132.561 50.6902 132.539 50.6154 132.539 50.6154L135.206 47.1966C135.8 46.404 136.18 45.7392 136.345 45.2023C136.511 44.6654 136.439 44.2308 136.129 43.8985C135.819 43.5661 135.222 43.3589 134.336 43.2768L134.36 42.5372C135.025 42.5864 135.616 42.633 136.133 42.6768C136.674 42.7215 137.241 42.7547 137.832 42.7766C138.399 42.7976 138.905 42.8039 139.349 42.7957C139.794 42.7874 140.201 42.7778 140.572 42.7668ZM149.215 42.679L148.467 65.3477C148.431 66.4324 148.715 67.1711 149.319 67.5636C149.923 67.9562 150.768 68.1726 151.852 68.2127L151.827 68.9892C151.261 68.9436 150.473 68.8775 149.464 68.7908C148.454 68.7288 147.37 68.6764 146.211 68.6336C145.398 68.6035 144.597 68.5862 143.807 68.5817C143.016 68.6019 142.411 68.6165 141.991 68.6257L142.017 67.8491C142.88 67.881 143.489 67.7307 143.846 67.3984C144.226 67.0915 144.431 66.482 144.462 65.5699L145.075 46.969C145.112 45.8596 144.954 45.0392 144.601 44.5078C144.249 43.9518 143.556 43.6546 142.52 43.6163L142.546 42.8398C143.332 42.9429 144.095 43.0081 144.835 43.0354C145.648 43.0655 146.426 43.0572 147.168 43.0106C147.911 42.9393 148.593 42.8288 149.215 42.679ZM155.098 42.7854C156.379 42.8327 157.514 43.2326 158.501 43.9849C159.513 44.7135 160.293 45.7666 160.84 47.1444C161.387 48.5222 161.627 50.2219 161.56 52.2435C161.511 53.7227 161.292 55.1215 160.903 56.44C160.515 57.7339 159.947 58.873 159.199 59.8574C158.476 60.818 157.575 61.5746 156.496 62.1271C155.417 62.6549 154.15 62.8919 152.696 62.8382C151.611 62.7981 150.658 62.5284 149.835 62.029C149.037 61.5305 148.477 60.9174 148.156 60.1897L148.543 59.6856C148.843 60.3138 149.27 60.8356 149.824 61.251C150.402 61.6673 151.123 61.8914 151.986 61.9233C153.268 61.9707 154.279 61.6008 155.021 60.8137C155.788 60.0028 156.343 58.9002 156.685 57.5059C157.028 56.087 157.229 54.4777 157.289 52.678C157.355 50.6564 157.261 49.0238 157.006 47.7802C156.752 46.512 156.338 45.5834 155.765 44.9945C155.193 44.381 154.488 44.0587 153.65 44.0277C152.541 43.9867 151.515 44.3931 150.574 45.2469C149.657 46.1017 149.071 47.4129 148.815 49.1806L148.471 48.3904C148.853 46.5532 149.639 45.1507 150.831 44.1827C152.049 43.191 153.471 42.7252 155.098 42.7854ZM171.229 33.9773L170.386 59.5304C170.352 60.5659 170.526 61.2758 170.908 61.6601C171.315 62.0454 171.999 62.2558 172.961 62.2914L172.935 63.068C172.517 63.0278 171.865 62.979 170.978 62.9216C170.092 62.8394 169.206 62.782 168.318 62.7492C167.431 62.7164 166.53 62.7078 165.617 62.7234C164.728 62.7152 164.062 62.7153 163.618 62.7235L163.643 61.947C164.604 61.9825 165.288 61.8227 165.695 61.4674C166.126 61.1131 166.359 60.4182 166.393 59.3828L167.09 38.2673C167.126 37.1579 166.968 36.3375 166.616 35.8061C166.264 35.2501 165.57 34.9529 164.535 34.9147L164.561 34.1381C165.347 34.2412 166.11 34.3064 166.849 34.3338C167.663 34.3638 168.44 34.3556 169.182 34.3089C169.925 34.2377 170.608 34.1271 171.229 33.9773ZM184.237 43.8625C185.889 43.9235 187.344 44.3229 188.603 45.0606C189.862 45.7982 190.849 46.9208 191.564 48.4282C192.28 49.9357 192.598 51.8851 192.519 54.2764C192.44 56.6678 191.994 58.589 191.181 60.0399C190.369 61.4662 189.311 62.5008 188.006 63.1437C186.703 63.762 185.225 64.0406 183.573 63.9795C181.947 63.9194 180.491 63.5324 179.206 62.8184C177.923 62.0799 176.923 60.9692 176.207 59.4864C175.516 57.9799 175.21 56.0309 175.289 53.6395C175.368 51.2482 175.801 49.3266 176.59 47.8747C177.403 46.4237 178.474 45.3773 179.803 44.7353C181.132 44.0933 182.61 43.8023 184.237 43.8625ZM184.213 44.6021C182.931 44.5547 181.859 45.2556 180.997 46.7047C180.135 48.1292 179.65 50.4932 179.541 53.7967C179.432 57.1002 179.76 59.4943 180.526 60.9789C181.292 62.4389 182.316 63.1926 183.598 63.2399C184.855 63.2864 185.914 62.6097 186.774 61.2099C187.661 59.7863 188.158 57.4228 188.267 54.1193C188.376 50.8157 188.036 48.4212 187.245 46.9357C186.481 45.4264 185.47 44.6485 184.213 44.6021ZM207.373 44.7177C208.087 44.7441 208.687 44.9143 209.17 45.2284C209.678 45.5434 210.047 45.9396 210.278 46.4171C210.535 46.8709 210.654 47.3813 210.635 47.9483C210.611 48.6633 210.369 49.2714 209.908 49.7727C209.473 50.2503 208.898 50.4759 208.183 50.4495C207.567 50.4267 207.043 50.2222 206.611 49.836C206.205 49.4507 206.012 48.9376 206.033 48.2966C206.051 47.7542 206.201 47.3031 206.485 46.9434C206.794 46.5598 207.137 46.264 207.514 46.0558C207.274 45.8494 206.981 45.7522 206.635 45.7641C205.968 45.7642 205.345 45.9633 204.764 46.3614C204.184 46.7349 203.686 47.2348 203.271 47.8613C202.856 48.463 202.526 49.1173 202.281 49.824C202.035 50.5307 201.902 51.1923 201.882 51.8086L201.601 60.314C201.561 61.522 201.867 62.3479 202.519 62.7916C203.172 63.2106 204.089 63.442 205.273 63.4857L205.247 64.2623C204.681 64.2167 203.868 64.162 202.809 64.0982C201.775 64.0106 200.679 63.9454 199.521 63.9026C198.633 63.8698 197.745 63.8616 196.856 63.8781C195.968 63.87 195.289 63.8696 194.82 63.8769L194.846 63.1003C195.807 63.1359 196.491 62.976 196.898 62.6208C197.329 62.2665 197.562 61.5716 197.596 60.5362L197.979 48.9245C198.015 47.8151 197.857 46.9947 197.505 46.4633C197.153 45.9073 196.459 45.6101 195.424 45.5719L195.45 44.7953C196.236 44.8984 196.999 44.9636 197.738 44.991C198.577 45.0219 199.354 45.0137 200.072 44.9661C200.814 44.8948 201.497 44.7843 202.119 44.6345L201.978 48.8872C202.298 48.1832 202.715 47.5075 203.23 46.8601C203.745 46.2126 204.354 45.6921 205.058 45.2986C205.763 44.8803 206.535 44.6867 207.373 44.7177ZM220.705 45.2105C222.874 45.2906 224.553 46.0068 225.742 47.359C226.932 48.7112 227.48 50.8048 227.386 53.6399L214.63 53.1684L214.579 52.4631L223.49 52.7925C223.555 51.5854 223.493 50.4723 223.304 49.4533C223.116 48.4097 222.799 47.5711 222.351 46.9374C221.903 46.3038 221.296 45.9728 220.532 45.9446C219.472 45.9054 218.529 46.4383 217.703 47.5432C216.902 48.6243 216.375 50.3944 216.121 52.8533L216.226 53.0423C216.19 53.3865 216.153 53.7677 216.114 54.1859C216.077 54.5795 216.051 54.9735 216.038 55.3679C215.982 57.069 216.194 58.5085 216.673 59.6863C217.153 60.8641 217.802 61.7644 218.62 62.387C219.44 62.985 220.281 63.3 221.143 63.3319C221.809 63.3565 222.453 63.2816 223.076 63.1071C223.724 62.9089 224.34 62.5738 224.923 62.1017C225.507 61.6049 226.035 60.921 226.508 60.0498L227.238 60.373C226.915 61.2003 226.431 62.0093 225.788 62.8001C225.145 63.5909 224.335 64.2274 223.356 64.7095C222.378 65.1671 221.249 65.3722 219.967 65.3248C218.242 65.261 216.75 64.8233 215.494 64.0117C214.238 63.1754 213.289 62.0172 212.647 60.5371C212.005 59.0571 211.717 57.3186 211.782 55.3217C211.855 53.1276 212.274 51.2671 213.04 49.7404C213.806 48.2137 214.844 47.0672 216.152 46.301C217.486 45.5111 219.004 45.1476 220.705 45.2105Z" fill="white"/>
<path d="M390.563 71.3715C389.528 71.3332 388.647 71.1032 387.92 70.6814C387.194 70.2596 386.657 69.6968 386.31 68.9928C385.963 68.2888 385.804 67.4931 385.834 66.6056C385.869 65.5208 386.145 64.6548 386.66 64.0074C387.176 63.3353 387.822 62.8038 388.6 62.413C389.403 62.023 390.24 61.7084 391.112 61.4691C392.009 61.2061 392.844 60.9654 393.616 60.7471C394.414 60.5051 395.065 60.2206 395.569 59.8937C396.098 59.5677 396.372 59.1212 396.391 58.5541L396.474 56.0395C396.503 55.152 396.378 54.4439 396.1 53.9152C395.846 53.3628 395.477 52.9666 394.991 52.7265C394.53 52.4873 393.967 52.3554 393.301 52.3308C392.734 52.3098 392.128 52.3738 391.481 52.5227C390.835 52.6469 390.32 52.9364 389.935 53.3912C390.472 53.5591 390.906 53.8714 391.236 54.3279C391.592 54.7607 391.76 55.2975 391.739 55.9385C391.716 56.6288 391.464 57.1625 390.982 57.5397C390.526 57.9177 389.952 58.094 389.262 58.0685C388.498 58.0402 387.939 57.7851 387.584 57.303C387.231 56.7963 387.065 56.2224 387.086 55.5814C387.108 54.9158 387.286 54.3793 387.62 53.9721C387.979 53.5657 388.436 53.1877 388.99 52.8379C389.595 52.4653 390.358 52.1603 391.279 51.9228C392.224 51.6863 393.264 51.5889 394.398 51.6308C395.458 51.67 396.366 51.827 397.122 52.1018C397.903 52.3528 398.544 52.7468 399.045 53.2836C399.643 53.8734 400.026 54.6034 400.194 55.4735C400.364 56.319 400.429 57.3458 400.389 58.5538L400.052 68.7603C400.032 69.3766 400.091 69.8231 400.23 70.0997C400.395 70.3526 400.662 70.4859 401.031 70.4996C401.278 70.5087 401.514 70.4557 401.74 70.3407C401.991 70.2265 402.28 70.0521 402.609 69.8174L402.958 70.4597C402.426 70.8597 401.885 71.1729 401.335 71.3994C400.809 71.6268 400.139 71.7255 399.326 71.6954C398.537 71.6663 397.9 71.5193 397.416 71.2545C396.931 70.9898 396.573 70.6187 396.342 70.1411C396.135 69.6645 396.043 69.0811 396.066 68.3908C395.391 69.4025 394.601 70.1632 393.696 70.6728C392.79 71.1823 391.746 71.4152 390.563 71.3715ZM392.396 69.6621C393.087 69.6876 393.734 69.514 394.339 69.1415C394.968 68.7698 395.554 68.1991 396.098 67.4293L396.341 60.0703C396.057 60.4547 395.651 60.7853 395.123 61.062C394.597 61.3141 394.033 61.5771 393.431 61.851C392.83 62.125 392.252 62.4492 391.696 62.8236C391.167 63.1743 390.719 63.6391 390.355 64.218C389.99 64.7969 389.793 65.5425 389.763 66.4546C389.731 67.4161 389.952 68.1895 390.427 68.7747C390.902 69.3353 391.558 69.6311 392.396 69.6621ZM422.287 43.2574L421.463 68.2188C421.427 69.3282 421.584 70.1609 421.936 70.7169C422.313 71.2492 423.007 71.5341 424.018 71.5714L423.992 72.348C423.231 72.2458 422.468 72.1806 421.704 72.1523C420.866 72.1213 420.076 72.1292 419.334 72.1758C418.616 72.2233 417.946 72.3343 417.324 72.5088L418.147 47.5473C418.184 46.438 418.013 45.6171 417.636 45.0848C417.284 44.5288 416.603 44.2321 415.592 44.1947L415.618 43.4181C416.404 43.5213 417.167 43.5865 417.907 43.6138C418.72 43.6439 419.498 43.6356 420.24 43.589C420.982 43.5177 421.665 43.4072 422.287 43.2574ZM413.657 52.3427C414.742 52.3828 415.72 52.6535 416.592 53.1547C417.489 53.6568 418.104 54.4694 418.437 55.5925L417.98 55.9829C417.664 55.0826 417.18 54.4229 416.527 54.0039C415.876 53.5602 415.131 53.3228 414.293 53.2918C412.887 53.2399 411.716 53.9495 410.779 55.4205C409.843 56.8669 409.336 59.1437 409.258 62.2509C409.191 64.2972 409.308 65.98 409.61 67.2993C409.913 68.5941 410.387 69.5619 411.032 70.2028C411.702 70.8447 412.518 71.1834 413.479 71.2189C414.44 71.2544 415.317 70.8795 416.107 70.0942C416.923 69.3098 417.43 68.1561 417.628 66.6331L417.936 67.4219C417.634 69.0893 416.999 70.3617 416.033 71.2392C415.067 72.0921 413.795 72.4894 412.217 72.4311C410.714 72.3755 409.394 71.9688 408.259 71.2111C407.15 70.4296 406.311 69.2878 405.744 67.7859C405.177 66.2592 404.932 64.3619 405.006 62.0938C405.08 59.8503 405.512 58.0027 406.3 56.5508C407.114 55.0752 408.161 53.9908 409.443 53.2977C410.724 52.6046 412.129 52.2863 413.657 52.3427ZM443.587 53.9674L443.562 54.707C443.092 54.7636 442.64 54.9938 442.207 55.3974C441.799 55.7773 441.407 56.4539 441.029 57.4273L434.67 72.8908C434.473 72.8835 434.263 72.8758 434.041 72.8676C433.844 72.8603 433.647 72.853 433.45 72.8457L427.261 56.2149C426.898 55.2388 426.523 54.6449 426.135 54.4331C425.773 54.1975 425.456 54.0747 425.185 54.0647L425.21 53.2881C425.8 53.3593 426.403 53.4309 427.017 53.503C427.657 53.5514 428.359 53.5897 429.124 53.6179C429.888 53.6462 430.689 53.6634 431.528 53.6698C432.393 53.6523 433.195 53.6327 433.936 53.6107L433.911 54.3873C433.319 54.3654 432.788 54.3828 432.317 54.4394C431.871 54.497 431.568 54.7079 431.408 55.0723C431.273 55.4129 431.34 56.02 431.607 56.8938L435.777 68.5257L435.471 68.8106L439.612 58.8559C440.015 57.8834 440.189 57.1 440.134 56.5056C440.081 55.8865 439.837 55.4209 439.403 55.1086C438.97 54.7717 438.335 54.5631 437.499 54.4828L437.523 53.7433C437.941 53.7834 438.322 53.8222 438.667 53.8596C439.036 53.8732 439.381 53.8983 439.701 53.9348C440.046 53.9476 440.403 53.9608 440.773 53.9745C441.315 53.9945 441.821 54.0009 442.29 53.9935C442.784 53.9871 443.216 53.9784 443.587 53.9674ZM453.453 53.8137C455.622 53.8939 457.301 54.6101 458.491 55.9623C459.68 57.3145 460.228 59.4081 460.135 62.2432L447.378 61.7717L447.328 61.0664L456.239 61.3957C456.303 60.1886 456.241 59.0756 456.053 58.0566C455.865 57.013 455.547 56.1743 455.099 55.5407C454.651 54.9071 454.045 54.5761 453.281 54.5479C452.221 54.5087 451.278 55.0415 450.451 56.1464C449.651 57.2276 449.123 58.9976 448.87 61.4566L448.974 61.6456C448.938 61.9898 448.901 62.371 448.863 62.7892C448.825 63.1828 448.8 63.5768 448.787 63.9712C448.73 65.6723 448.942 67.1117 449.422 68.2896C449.901 69.4674 450.55 70.3677 451.369 70.9903C452.188 71.5883 453.029 71.9033 453.892 71.9352C454.557 71.9598 455.201 71.8848 455.824 71.7104C456.472 71.5122 457.088 71.1771 457.671 70.705C458.255 70.2082 458.784 69.5243 459.257 68.6531L459.987 68.9763C459.663 69.8036 459.18 70.6126 458.537 71.4034C457.894 72.1942 457.083 72.8307 456.104 73.3128C455.127 73.7704 453.997 73.9754 452.715 73.9281C450.99 73.8643 449.499 73.4266 448.242 72.6149C446.987 71.7787 446.038 70.6205 445.395 69.1404C444.753 67.6604 444.465 65.9219 444.531 63.925C444.603 61.7308 445.022 59.8704 445.789 58.3437C446.555 56.8169 447.592 55.6705 448.901 54.9043C450.235 54.1144 451.752 53.7509 453.453 53.8137ZM475.746 54.6378C476.732 54.6742 477.529 54.8394 478.136 55.1334C478.769 55.4036 479.287 55.7683 479.692 56.2276C480.12 56.7124 480.408 57.3278 480.556 58.0738C480.729 58.8207 480.795 59.8228 480.753 61.0801L480.426 70.9907C480.392 72.0261 480.566 72.736 480.949 73.1204C481.355 73.5057 482.039 73.7161 483.001 73.7516L482.975 74.5282C482.557 74.4881 481.905 74.4393 481.018 74.3818C480.132 74.2997 479.258 74.2427 478.395 74.2108C477.557 74.1799 476.718 74.1735 475.879 74.1919C475.064 74.1864 474.447 74.1883 474.027 74.1975L474.053 73.4209C474.891 73.4519 475.489 73.2888 475.846 72.9318C476.203 72.5748 476.399 71.8785 476.433 70.8431L476.794 59.897C476.818 59.1821 476.777 58.5388 476.673 57.9673C476.569 57.371 476.326 56.893 475.943 56.5333C475.561 56.1489 474.975 55.9422 474.186 55.913C473.274 55.8793 472.452 56.1081 471.72 56.5994C471.013 57.0916 470.435 57.786 469.986 58.6827C469.562 59.5557 469.332 60.5468 469.295 61.6562L469.001 70.5684C468.967 71.6038 469.117 72.3128 469.449 72.6954C469.807 73.0788 470.392 73.2856 471.206 73.3157L471.18 74.0922C470.787 74.053 470.184 74.006 469.371 73.9513C468.584 73.8728 467.759 73.8177 466.896 73.7858C466.058 73.7548 465.182 73.7471 464.268 73.7627C463.356 73.7536 462.677 73.7532 462.232 73.7615L462.258 72.9849C463.219 73.0205 463.903 72.8606 464.31 72.5054C464.741 72.1511 464.974 71.4562 465.008 70.4208L465.391 58.8091C465.428 57.6997 465.27 56.8793 464.917 56.3479C464.565 55.7919 463.872 55.4947 462.836 55.4565L462.862 54.6799C463.648 54.783 464.411 54.8482 465.151 54.8756C465.989 54.9065 466.766 54.8983 467.484 54.8507C468.226 54.7794 468.909 54.6689 469.531 54.5191L469.398 58.5499C470.089 57.0451 471 56.005 472.129 55.4297C473.283 54.8553 474.489 54.5913 475.746 54.6378ZM491.813 49.6409L491.61 55.7795L496.713 55.9681L496.688 56.7077L491.586 56.5191L491.106 71.0522C491.073 72.063 491.234 72.7848 491.59 73.2176C491.946 73.6503 492.469 73.8795 493.159 73.905C493.8 73.9287 494.376 73.6908 494.886 73.1913C495.42 72.6927 495.893 71.8339 496.303 70.6149L496.997 70.8997C496.658 72.1954 496.092 73.2852 495.298 74.1692C494.529 75.0293 493.417 75.4326 491.963 75.3788C491.125 75.3478 490.426 75.2109 489.866 74.9681C489.306 74.7499 488.823 74.4358 488.417 74.0259C487.893 73.4388 487.546 72.7472 487.374 71.951C487.203 71.1548 487.139 70.1034 487.182 68.7968L487.592 56.3715L484.191 56.2458L484.215 55.5062L487.617 55.6319L487.795 50.2329C488.56 50.2365 489.277 50.2012 489.945 50.1272C490.615 50.0286 491.237 49.8665 491.813 49.6409ZM515.53 56.2194L515.019 71.714C514.982 72.8234 515.14 73.6561 515.492 74.2121C515.869 74.7444 516.563 75.0293 517.574 75.0666L517.548 75.8432C516.787 75.741 516.024 75.6758 515.26 75.6475C514.446 75.6175 513.668 75.6257 512.926 75.6724C512.184 75.719 511.502 75.8295 510.879 76.004L511.012 71.9732C510.347 73.4296 509.45 74.4578 508.319 75.0578C507.214 75.634 506.058 75.8998 504.85 75.8552C503.938 75.8214 503.166 75.6571 502.534 75.3623C501.901 75.092 501.382 74.7396 500.977 74.305C500.55 73.7956 500.262 73.1555 500.115 72.3849C499.968 71.5896 499.915 70.6003 499.954 69.4169L500.261 60.098C500.298 58.9886 500.14 58.1682 499.787 57.6368C499.435 57.0808 498.742 56.7836 497.706 56.7454L497.732 55.9688C498.518 56.0719 499.281 56.1371 500.021 56.1645C500.834 56.1945 501.612 56.1863 502.354 56.1396C503.097 56.0684 503.779 55.9578 504.401 55.808L503.913 70.6C503.889 71.3149 503.917 71.9701 503.996 72.5654C504.075 73.1607 504.294 73.6378 504.652 73.9966C505.011 74.3554 505.597 74.5498 506.41 74.5799C507.273 74.6118 508.045 74.3812 508.728 73.8881C509.435 73.3959 510.001 72.7133 510.424 71.8404C510.848 70.9674 511.078 69.9762 511.115 68.8668L511.391 60.5094C511.427 59.4 511.269 58.5796 510.916 58.0482C510.565 57.4922 509.871 57.195 508.836 57.1568L508.861 56.3802C509.648 56.4833 510.411 56.5485 511.15 56.5759C511.964 56.6059 512.741 56.5977 513.483 56.551C514.226 56.4797 514.908 56.3692 515.53 56.2194ZM531.872 56.7124C532.587 56.7388 533.186 56.9091 533.669 57.2231C534.177 57.5381 534.546 57.9343 534.777 58.4119C535.034 58.8656 535.153 59.376 535.134 59.9431C535.11 60.658 534.868 61.2661 534.408 61.7675C533.972 62.245 533.397 62.4706 532.682 62.4442C532.066 62.4214 531.542 62.2169 531.111 61.8307C530.704 61.4454 530.511 60.9323 530.532 60.2913C530.55 59.7489 530.701 59.2979 530.984 58.9381C531.293 58.5546 531.636 58.2587 532.013 58.0505C531.773 57.8442 531.48 57.7469 531.134 57.7588C530.468 57.7589 529.844 57.958 529.263 58.3561C528.683 58.7296 528.186 59.2296 527.77 59.856C527.355 60.4577 527.025 61.112 526.78 61.8187C526.534 62.5255 526.401 63.187 526.381 63.8034L526.1 72.3087C526.061 73.5167 526.367 74.3426 527.018 74.7863C527.671 75.2053 528.589 75.4367 529.772 75.4805L529.746 76.2571C529.18 76.2114 528.367 76.1567 527.308 76.0929C526.275 76.0053 525.179 75.9401 524.02 75.8973C523.133 75.8645 522.244 75.8563 521.355 75.8729C520.467 75.8647 519.789 75.8643 519.319 75.8716L519.345 75.0951C520.306 75.1306 520.99 74.9708 521.397 74.6155C521.828 74.2612 522.061 73.5664 522.095 72.5309L522.478 60.9192C522.515 59.8098 522.357 58.9894 522.004 58.4581C521.652 57.902 520.959 57.6049 519.923 57.5666L519.949 56.79C520.735 56.8931 521.498 56.9584 522.238 56.9857C523.076 57.0167 523.853 57.0084 524.571 56.9609C525.313 56.8896 525.996 56.779 526.618 56.6293L526.477 60.8819C526.797 60.1779 527.214 59.5022 527.729 58.8548C528.244 58.2074 528.853 57.6869 529.557 57.2933C530.262 56.875 531.034 56.6814 531.872 56.7124ZM545.204 57.2052C547.373 57.2854 549.052 58.0015 550.242 59.3537C551.431 60.7059 551.979 62.7996 551.885 65.6347L539.129 65.1632L539.078 64.4578L547.989 64.7872C548.054 63.5801 547.992 62.4671 547.803 61.4481C547.616 60.4044 547.298 59.5658 546.85 58.9322C546.402 58.2985 545.796 57.9676 545.032 57.9393C543.972 57.9001 543.029 58.433 542.202 59.5379C541.402 60.619 540.874 62.3891 540.62 64.848L540.725 65.037C540.689 65.3813 540.652 65.7625 540.613 66.1807C540.576 66.5742 540.55 66.9682 540.537 67.3627C540.481 69.0637 540.693 70.5032 541.172 71.681C541.652 72.8589 542.301 73.7591 543.119 74.3818C543.939 74.9798 544.78 75.2947 545.643 75.3266C546.308 75.3512 546.952 75.2763 547.575 75.1018C548.223 74.9037 548.839 74.5685 549.422 74.0964C550.006 73.5996 550.535 72.9157 551.008 72.0446L551.737 72.3678C551.414 73.195 550.931 74.0041 550.288 74.7948C549.644 75.5856 548.834 76.2221 547.855 76.7043C546.878 77.1618 545.748 77.3669 544.466 77.3195C542.741 77.2557 541.25 76.818 539.993 76.0064C538.737 75.1701 537.788 74.0119 537.146 72.5319C536.504 71.0518 536.216 69.3133 536.282 67.3164C536.354 65.1223 536.773 63.2619 537.539 61.7351C538.305 60.2084 539.343 59.0619 540.651 58.2958C541.986 57.5058 543.503 57.1423 545.204 57.2052Z" fill="white"/>
<path d="M716.527 54.1335L715.684 79.6866C715.65 80.7221 715.824 81.432 716.206 81.8164C716.613 82.2016 717.297 82.4121 718.258 82.4476L718.233 83.2242C717.814 83.184 717.162 83.1352 716.275 83.0778C715.39 82.9957 714.503 82.9382 713.616 82.9054C712.728 82.8726 711.828 82.864 710.914 82.8796C710.026 82.8714 709.36 82.8715 708.915 82.8798L708.941 82.1032C709.902 82.1387 710.586 81.9789 710.993 81.6236C711.424 81.2693 711.657 80.5745 711.691 79.539L712.387 58.4235C712.424 57.3141 712.266 56.4937 711.913 55.9623C711.561 55.4063 710.868 55.1091 709.833 55.0709L709.858 54.2943C710.644 54.3974 711.407 54.4626 712.147 54.49C712.96 54.52 713.738 54.5118 714.48 54.4651C715.223 54.3939 715.905 54.2833 716.527 54.1335ZM737.99 64.4423L737.478 79.9369C737.442 81.0463 737.599 81.879 737.951 82.435C738.329 82.9673 739.023 83.2521 740.033 83.2895L740.008 84.0661C739.246 83.9639 738.483 83.8986 737.719 83.8704C736.905 83.8403 736.128 83.8486 735.386 83.8952C734.644 83.9419 733.961 84.0524 733.339 84.2268L733.472 80.196C732.807 81.6525 731.909 82.6807 730.779 83.2806C729.674 83.8569 728.517 84.1227 727.309 84.078C726.397 84.0443 725.625 83.88 724.993 83.5851C724.361 83.3149 723.842 82.9625 723.436 82.5279C723.009 82.0185 722.722 81.3784 722.574 80.6078C722.428 79.8125 722.374 78.8232 722.413 77.6398L722.721 68.3209C722.757 67.2115 722.599 66.3911 722.246 65.8597C721.895 65.3037 721.201 65.0065 720.166 64.9683L720.191 64.1917C720.978 64.2948 721.741 64.36 722.48 64.3874C723.294 64.4174 724.071 64.4091 724.813 64.3625C725.556 64.2912 726.238 64.1807 726.86 64.0309L726.372 78.8229C726.349 79.5378 726.376 80.1929 726.455 80.7883C726.534 81.3836 726.753 81.8607 727.112 82.2195C727.47 82.5783 728.056 82.7727 728.869 82.8028C729.732 82.8347 730.505 82.6041 731.187 82.1109C731.895 81.6187 732.46 80.9362 732.884 80.0632C733.307 79.1903 733.538 78.1991 733.574 77.0897L733.85 68.7323C733.887 67.6229 733.728 66.8025 733.376 66.2711C733.024 65.7151 732.33 65.4179 731.295 65.3796L731.321 64.6031C732.107 64.7062 732.87 64.7714 733.609 64.7987C734.423 64.8288 735.201 64.8205 735.943 64.7739C736.685 64.7026 737.368 64.5921 737.99 64.4423ZM749.655 65.2808L749.63 66.0574C749.161 66.04 748.776 66.1369 748.472 66.3478C748.169 66.5587 748.135 66.866 748.368 67.2696L757.727 82.0553C758.079 82.636 758.409 83.0801 758.72 83.3878C759.056 83.6718 759.445 83.8713 759.885 83.9863L759.859 84.7628C759.564 84.7273 759.121 84.6862 758.531 84.6397C757.965 84.5694 757.387 84.5234 756.795 84.5015C755.982 84.4714 755.131 84.4646 754.242 84.4811C753.353 84.473 752.699 84.4735 752.28 84.4827L752.305 83.7061C752.798 83.7243 753.196 83.6279 753.499 83.417C753.803 83.1814 753.826 82.8737 753.567 82.4939L744.207 67.7082C743.761 67.0252 743.394 66.555 743.106 66.2975C742.844 66.0163 742.492 65.8429 742.05 65.7772L742.075 65.0006C742.395 65.0371 742.862 65.0914 743.477 65.1635C744.092 65.2109 744.696 65.2456 745.287 65.2674C746.101 65.2975 746.927 65.3157 747.766 65.322C748.63 65.3046 749.26 65.2908 749.655 65.2808ZM749.742 74.9845C749.742 74.9845 749.752 75.059 749.772 75.2078C749.816 75.3575 749.86 75.5196 749.904 75.694C749.972 75.8693 750.006 75.9569 750.006 75.9569L747.347 79.1539C746.653 79.9921 746.27 80.7432 746.199 81.407C746.128 82.0461 746.334 82.5474 746.815 82.9108C747.297 83.2741 747.968 83.5087 748.828 83.6146L748.804 84.3542C748.361 84.3131 747.856 84.2821 747.289 84.2612C746.723 84.2156 746.169 84.1827 745.627 84.1627C745.085 84.118 744.617 84.0884 744.223 84.0738C743.656 84.0528 743.15 84.0465 742.706 84.0547C742.262 84.0383 741.854 84.0479 741.483 84.0836L741.507 83.344C742.004 83.2636 742.505 83.0353 743.011 82.6591C743.542 82.2591 744.167 81.6404 744.886 80.8031L749.742 74.9845ZM759.638 65.6498L759.614 66.3894C759.118 66.4698 758.579 66.7214 757.997 67.1442C757.44 67.5679 756.853 68.1756 756.234 68.9673L751.834 74.4324C751.834 74.4324 751.811 74.3575 751.767 74.2078C751.748 74.0343 751.716 73.8727 751.672 73.723C751.628 73.5732 751.605 73.4984 751.605 73.4984L754.273 70.0796C754.866 69.287 755.246 68.6222 755.412 68.0853C755.578 67.5484 755.506 67.1138 755.196 66.7814C754.886 66.4491 754.288 66.2419 753.402 66.1598L753.427 65.4202C754.091 65.4694 754.682 65.516 755.199 65.5597C755.741 65.6044 756.307 65.6377 756.899 65.6596C757.466 65.6805 757.971 65.6869 758.416 65.6786C758.86 65.6704 759.268 65.6608 759.638 65.6498ZM779.189 65.9652L778.678 81.4597C778.641 82.5691 778.799 83.4019 779.151 83.9579C779.528 84.4902 780.222 84.775 781.233 84.8124L781.207 85.589C780.445 85.4868 779.682 85.4215 778.918 85.3933C778.105 85.3632 777.327 85.3715 776.585 85.4181C775.843 85.4647 775.161 85.5753 774.538 85.7497L774.671 81.7189C774.006 83.1753 773.108 84.2035 771.978 84.8035C770.873 85.3798 769.717 85.6456 768.509 85.6009C767.597 85.5672 766.825 85.4029 766.193 85.108C765.56 84.8378 765.041 84.4854 764.636 84.0508C764.208 83.5413 763.921 82.9013 763.774 82.1307C763.627 81.3354 763.573 80.3461 763.612 79.1627L763.92 69.8438C763.957 68.7344 763.798 67.914 763.446 67.3826C763.094 66.8266 762.4 66.5294 761.365 66.4911L761.391 65.7146C762.177 65.8177 762.94 65.8829 763.679 65.9102C764.493 65.9403 765.271 65.932 766.013 65.8854C766.755 65.8141 767.438 65.7036 768.06 65.5538L767.572 80.3457C767.548 81.0607 767.576 81.7158 767.655 82.3111C767.734 82.9065 767.953 83.3835 768.311 83.7423C768.669 84.1012 769.255 84.2956 770.069 84.3257C770.931 84.3576 771.704 84.1269 772.387 83.6338C773.094 83.1416 773.659 82.459 774.083 81.5861C774.507 80.7132 774.737 79.722 774.774 78.6126L775.049 70.2552C775.086 69.1458 774.928 68.3254 774.575 67.794C774.223 67.2379 773.53 66.9408 772.494 66.9025L772.52 66.1259C773.306 66.2291 774.069 66.2943 774.809 66.3216C775.622 66.3517 776.4 66.3434 777.142 66.2968C777.885 66.2255 778.567 66.115 779.189 65.9652ZM795.531 66.4581C796.245 66.4846 796.844 66.6548 797.328 66.9689C797.836 67.2838 798.205 67.6801 798.436 68.1576C798.693 68.6114 798.811 69.1218 798.793 69.6888C798.769 70.4038 798.527 71.0119 798.066 71.5132C797.631 71.9908 797.056 72.2164 796.341 72.1899C795.725 72.1672 795.201 71.9627 794.769 71.5765C794.363 71.1912 794.17 70.6781 794.191 70.0371C794.209 69.4947 794.359 69.0436 794.643 68.6838C794.952 68.3003 795.294 68.0045 795.672 67.7963C795.432 67.5899 795.139 67.4927 794.793 67.5046C794.126 67.5046 793.503 67.7037 792.922 68.1019C792.342 68.4754 791.844 68.9753 791.429 69.6017C791.014 70.2035 790.684 70.8577 790.438 71.5645C790.193 72.2712 790.06 72.9328 790.04 73.5491L789.759 82.0545C789.719 83.2625 790.025 84.0883 790.677 84.5321C791.33 84.9511 792.247 85.1825 793.431 85.2262L793.405 86.0028C792.839 85.9572 792.026 85.9025 790.967 85.8386C789.933 85.7511 788.837 85.6859 787.679 85.6431C786.791 85.6102 785.903 85.6021 785.014 85.6186C784.126 85.6105 783.447 85.6101 782.978 85.6174L783.004 84.8408C783.965 84.8764 784.649 84.7165 785.056 84.3613C785.487 84.007 785.72 83.3121 785.754 82.2767L786.137 70.665C786.173 69.5556 786.015 68.7352 785.663 68.2038C785.311 67.6478 784.617 67.3506 783.582 67.3124L783.608 66.5358C784.394 66.6389 785.157 66.7041 785.896 66.7315C786.734 66.7624 787.512 66.7542 788.229 66.7066C788.972 66.6353 789.655 66.5248 790.276 66.375L790.136 70.6277C790.456 69.9237 790.873 69.248 791.388 68.6006C791.903 67.9531 792.512 67.4326 793.216 67.039C793.921 66.6208 794.692 66.4272 795.531 66.4581ZM817.815 67.8002L817.79 68.5398C817.32 68.5964 816.88 68.827 816.472 69.2316C816.064 69.6114 815.66 70.2876 815.257 71.2601L808.979 86.5044L808.063 87.3592L801.415 70.0449C800.978 69.0661 800.541 68.4699 800.104 68.2563C799.692 68.0189 799.339 67.8948 799.043 67.8838L799.069 67.1073C799.682 67.204 800.334 67.2898 801.022 67.3646C801.711 67.4148 802.426 67.4535 803.165 67.4809C804.004 67.5118 804.842 67.5182 805.682 67.4998C806.547 67.4824 807.349 67.4627 808.09 67.4408L808.065 68.2173C807.473 68.1955 806.942 68.2252 806.47 68.3065C806.024 68.364 805.72 68.5873 805.559 68.9763C805.424 69.3415 805.526 69.9871 805.866 70.9129L810.078 82.3613L809.816 82.4626L813.877 72.6901C814.28 71.7176 814.454 70.9342 814.399 70.3397C814.346 69.7207 814.102 69.255 813.668 68.9428C813.235 68.6059 812.588 68.3969 811.726 68.3157L811.751 67.5761C812.169 67.6162 812.55 67.655 812.895 67.6924C813.264 67.7061 813.621 67.7316 813.966 67.769C814.311 67.7818 814.656 67.7945 815.001 67.8073C815.543 67.8273 816.049 67.8337 816.518 67.8263C817.012 67.8199 817.444 67.8112 817.815 67.8002ZM808.979 86.5044L807.534 89.9314C807.267 90.5386 806.991 91.0467 806.706 91.4558C806.445 91.8658 806.163 92.2009 805.858 92.4612C805.477 92.7927 805.013 93.0223 804.466 93.1502C803.919 93.2781 803.374 93.332 802.832 93.3119C802.314 93.2928 801.824 93.176 801.362 92.9614C800.924 92.7725 800.563 92.4876 800.28 92.1069C799.996 91.7261 799.863 91.2646 799.881 90.7222C799.902 90.0812 800.129 89.5713 800.561 89.1923C800.993 88.8133 801.554 88.6366 802.245 88.6621C802.861 88.6849 803.373 88.8643 803.782 89.2003C804.189 89.5609 804.383 90.0617 804.361 90.7027C804.347 91.1465 804.211 91.524 803.954 91.8354C803.721 92.1477 803.417 92.3833 803.042 92.5422C803.115 92.5696 803.189 92.5847 803.263 92.5874C803.337 92.5901 803.398 92.5924 803.448 92.5942C804.138 92.6197 804.762 92.4083 805.319 91.9599C805.876 91.5362 806.356 90.8258 806.759 89.8287L808.208 86.3278L808.979 86.5044Z" fill="white"/>
<path d="M983.772 73.4163C985.942 73.4964 987.621 74.2126 988.81 75.5648C990 76.917 990.548 79.0106 990.454 81.8458L977.698 81.3742L977.647 80.6689L986.558 80.9983C986.622 79.7912 986.56 78.6781 986.372 77.6591C986.184 76.6155 985.866 75.7769 985.418 75.1432C984.97 74.5096 984.364 74.1786 983.6 74.1504C982.54 74.1112 981.597 74.6441 980.771 75.749C979.97 76.8301 979.443 78.6002 979.189 81.0591L979.294 81.2481C979.258 81.5923 979.22 81.9736 979.182 82.3918C979.144 82.7853 979.119 83.1793 979.106 83.5737C979.05 85.2748 979.261 86.7143 979.741 87.8921C980.22 89.0699 980.869 89.9702 981.688 90.5928C982.507 91.1909 983.348 91.5058 984.211 91.5377C984.877 91.5623 985.521 91.4874 986.144 91.3129C986.792 91.1147 987.407 90.7796 987.991 90.3075C988.575 89.8107 989.103 89.1268 989.576 88.2557L990.306 88.5788C989.982 89.4061 989.499 90.2151 988.856 91.0059C988.213 91.7967 987.402 92.4332 986.424 92.9154C985.446 93.3729 984.317 93.578 983.035 93.5306C981.309 93.4668 979.818 93.0291 978.562 92.2175C977.306 91.3812 976.357 90.223 975.715 88.743C975.072 87.2629 974.784 85.5244 974.85 83.5275C974.923 81.3334 975.342 79.4729 976.108 77.9462C976.874 76.4195 977.911 75.273 979.22 74.5068C980.554 73.7169 982.072 73.3534 983.772 73.4163ZM1006.07 74.2403C1007.05 74.2767 1007.85 74.4419 1008.46 74.7359C1009.09 75.0061 1009.61 75.3709 1010.01 75.8301C1010.44 76.3149 1010.73 76.9303 1010.88 77.6763C1011.05 78.4232 1011.11 79.4253 1011.07 80.6826L1010.75 90.5932C1010.71 91.6287 1010.89 92.3386 1011.27 92.7229C1011.67 93.1082 1012.36 93.3186 1013.32 93.3542L1013.29 94.1307C1012.88 94.0906 1012.22 94.0418 1011.34 93.9844C1010.45 93.9022 1009.58 93.8452 1008.71 93.8134C1007.88 93.7824 1007.04 93.776 1006.2 93.7944C1005.38 93.789 1004.77 93.7908 1004.35 93.8L1004.37 93.0234C1005.21 93.0544 1005.81 92.8914 1006.17 92.5343C1006.52 92.1773 1006.72 91.481 1006.75 90.4456L1007.11 79.4996C1007.14 78.7846 1007.1 78.1414 1006.99 77.5698C1006.89 76.9735 1006.65 76.4956 1006.26 76.1358C1005.88 75.7515 1005.29 75.5447 1004.51 75.5155C1003.59 75.4818 1002.77 75.7106 1002.04 76.2019C1001.33 76.6941 1000.75 77.3886 1000.31 78.2852C999.881 79.1582 999.651 80.1493 999.615 81.2587L999.321 90.1709C999.286 91.2063 999.436 91.9153 999.769 92.2979C1000.13 92.6814 1000.71 92.8881 1001.53 92.9182L1001.5 93.6948C1001.11 93.6555 1000.5 93.6086 999.69 93.5538C998.903 93.4754 998.078 93.4202 997.215 93.3883C996.377 93.3573 995.501 93.3496 994.588 93.3652C993.675 93.3562 992.996 93.3558 992.552 93.364L992.577 92.5874C993.539 92.623 994.223 92.4631 994.629 92.1079C995.06 91.7536 995.293 91.0587 995.327 90.0233L995.71 78.4116C995.747 77.3022 995.589 76.4818 995.236 75.9504C994.884 75.3944 994.191 75.0972 993.156 75.059L993.181 74.2824C993.968 74.3855 994.731 74.4507 995.47 74.4781C996.308 74.5091 997.086 74.5008 997.803 74.4532C998.546 74.382 999.228 74.2714 999.85 74.1216L999.717 78.1524C1000.41 76.6476 1001.32 75.6076 1002.45 75.0322C1003.6 74.4578 1004.81 74.1938 1006.07 74.2403ZM1012.68 101.069L1012.7 100.477C1014.13 100.481 1015.23 99.9166 1016.01 98.7852C1016.79 97.6785 1017.21 96.0897 1017.28 94.0189L1017.77 79.2269C1017.8 78.1175 1017.65 77.2971 1017.29 76.7657C1016.94 76.2097 1016.25 75.9125 1015.21 75.8743L1015.24 75.0977C1016.02 75.2008 1016.79 75.266 1017.53 75.2934C1018.34 75.3234 1019.12 75.3152 1019.86 75.2685C1020.6 75.1973 1021.29 75.0867 1021.91 74.9369L1021.4 90.4315C1021.35 91.7135 1021.23 92.8936 1021.02 93.972C1020.81 95.0504 1020.5 96.0137 1020.07 96.862C1019.65 97.7103 1019.11 98.4554 1018.44 99.0973C1017.81 99.7155 1017 100.204 1016.03 100.563C1015.08 100.947 1013.96 101.116 1012.68 101.069ZM1019.87 65.9387C1020.64 65.9669 1021.27 66.2371 1021.77 66.7493C1022.27 67.2369 1022.51 67.8381 1022.49 68.5531C1022.46 69.268 1022.19 69.8625 1021.65 70.3364C1021.12 70.7857 1020.47 70.9962 1019.71 70.9679C1018.94 70.9397 1018.31 70.6818 1017.81 70.1943C1017.3 69.6821 1017.07 69.0685 1017.09 68.3535C1017.11 67.6386 1017.39 67.0565 1017.92 66.6072C1018.46 66.1333 1019.11 65.9104 1019.87 65.9387ZM1034.98 75.3089C1036.63 75.37 1038.08 75.7693 1039.34 76.507C1040.6 77.2447 1041.59 78.3672 1042.3 79.8747C1043.02 81.3821 1043.34 83.3315 1043.26 85.7229C1043.18 88.1142 1042.73 90.0354 1041.92 91.4863C1041.11 92.9126 1040.05 93.9472 1038.74 94.5902C1037.44 95.2084 1035.96 95.487 1034.31 95.426C1032.68 95.3658 1031.23 94.9788 1029.94 94.2649C1028.66 93.5263 1027.66 92.4156 1026.94 90.9328C1026.25 89.4263 1025.95 87.4773 1026.03 85.086C1026.11 82.6946 1026.54 80.773 1027.33 79.3211C1028.14 77.8702 1029.21 76.8237 1030.54 76.1817C1031.87 75.5397 1033.35 75.2488 1034.98 75.3089ZM1034.95 76.0485C1033.67 76.0011 1032.6 76.702 1031.73 78.1511C1030.87 79.5756 1030.39 81.9396 1030.28 85.2432C1030.17 88.5467 1030.5 90.9408 1031.26 92.4254C1032.03 93.8853 1033.05 94.639 1034.34 94.6864C1035.59 94.7328 1036.65 94.0562 1037.51 92.6563C1038.4 91.2328 1038.9 88.8692 1039.01 85.5657C1039.11 82.2622 1038.77 79.8676 1037.98 78.3821C1037.22 76.8728 1036.21 76.095 1034.95 76.0485ZM1063.32 76.8748L1063.29 77.6144C1062.82 77.6711 1062.38 77.9017 1061.97 78.3062C1061.57 78.6861 1061.16 79.3622 1060.76 80.3347L1054.48 95.5791L1053.56 96.4338L1046.92 79.1196C1046.48 78.1408 1046.04 77.5446 1045.61 77.3309C1045.19 77.0936 1044.84 76.9694 1044.54 76.9585L1044.57 76.1819C1045.18 76.2786 1045.83 76.3644 1046.52 76.4392C1047.21 76.4894 1047.93 76.5282 1048.67 76.5555C1049.5 76.5865 1050.34 76.5928 1051.18 76.5745C1052.05 76.5571 1052.85 76.5374 1053.59 76.5154L1053.57 77.292C1052.97 77.2701 1052.44 77.2998 1051.97 77.3811C1051.53 77.4387 1051.22 77.6619 1051.06 78.0509C1050.93 78.4162 1051.03 79.0617 1051.37 79.9876L1055.58 91.4359L1055.32 91.5373L1059.38 81.7647C1059.78 80.7922 1059.95 80.0088 1059.9 79.4144C1059.85 78.7953 1059.6 78.3297 1059.17 78.0174C1058.74 77.6805 1058.09 77.4715 1057.23 77.3903L1057.25 76.6507C1057.67 76.6908 1058.05 76.7296 1058.4 76.767C1058.77 76.7807 1059.12 76.8062 1059.47 76.8436C1059.81 76.8564 1060.16 76.8691 1060.5 76.8819C1061.04 76.902 1061.55 76.9083 1062.02 76.901C1062.51 76.8945 1062.95 76.8858 1063.32 76.8748ZM1054.48 95.5791L1053.03 99.006C1052.77 99.6132 1052.49 100.121 1052.21 100.53C1051.95 100.94 1051.66 101.276 1051.36 101.536C1050.98 101.867 1050.51 102.097 1049.97 102.225C1049.42 102.353 1048.88 102.407 1048.33 102.387C1047.82 102.367 1047.33 102.251 1046.86 102.036C1046.43 101.847 1046.06 101.562 1045.78 101.182C1045.5 100.801 1045.36 100.339 1045.38 99.7969C1045.4 99.1559 1045.63 98.6459 1046.06 98.2669C1046.49 97.888 1047.06 97.7113 1047.75 97.7368C1048.36 97.7595 1048.87 97.9389 1049.28 98.2749C1049.69 98.6355 1049.88 99.1364 1049.86 99.7773C1049.85 100.221 1049.71 100.599 1049.46 100.91C1049.22 101.222 1048.92 101.458 1048.54 101.617C1048.62 101.644 1048.69 101.659 1048.76 101.662C1048.84 101.665 1048.9 101.667 1048.95 101.669C1049.64 101.694 1050.26 101.483 1050.82 101.035C1051.38 100.611 1051.86 99.9004 1052.26 98.9033L1053.71 95.4025L1054.48 95.5791Z" fill="white"/>
<path d="M1229.6 82.5032C1231.77 82.5834 1233.45 83.2995 1234.64 84.6517C1235.83 86.0039 1236.38 88.0975 1236.29 90.9327L1223.53 90.4612L1223.48 89.7558L1232.39 90.0852C1232.45 88.8781 1232.39 87.765 1232.2 86.7461C1232.02 85.7024 1231.7 84.8638 1231.25 84.2301C1230.8 83.5965 1230.2 83.2655 1229.43 83.2373C1228.37 83.1981 1227.43 83.731 1226.6 84.8359C1225.8 85.917 1225.27 87.6871 1225.02 90.146L1225.13 90.335C1225.09 90.6793 1225.05 91.0605 1225.01 91.4787C1224.98 91.8722 1224.95 92.2662 1224.94 92.6607C1224.88 94.3617 1225.09 95.8012 1225.57 96.979C1226.05 98.1569 1226.7 99.0571 1227.52 99.6798C1228.34 100.278 1229.18 100.593 1230.04 100.625C1230.71 100.649 1231.35 100.574 1231.98 100.4C1232.62 100.202 1233.24 99.8665 1233.82 99.3944C1234.41 98.8976 1234.94 98.2137 1235.41 97.3426L1236.14 97.6657C1235.81 98.493 1235.33 99.302 1234.69 100.093C1234.05 100.884 1233.23 101.52 1232.26 102.002C1231.28 102.46 1230.15 102.665 1228.87 102.617C1227.14 102.554 1225.65 102.116 1224.39 101.304C1223.14 100.468 1222.19 99.3099 1221.55 97.8299C1220.9 96.3498 1220.62 94.6113 1220.68 92.6144C1220.75 90.4203 1221.17 88.5598 1221.94 87.0331C1222.71 85.5064 1223.74 84.3599 1225.05 83.5937C1226.39 82.8038 1227.9 82.4403 1229.6 82.5032ZM1245.83 83.6212L1245.8 84.3977C1245.33 84.3804 1244.95 84.4773 1244.64 84.6882C1244.34 84.8991 1244.31 85.2064 1244.54 85.61L1253.9 100.396C1254.25 100.976 1254.58 101.421 1254.89 101.728C1255.23 102.012 1255.62 102.212 1256.06 102.327L1256.03 103.103C1255.74 103.068 1255.29 103.027 1254.7 102.98C1254.14 102.91 1253.56 102.864 1252.97 102.842C1252.15 102.812 1251.3 102.805 1250.41 102.822C1249.53 102.813 1248.87 102.814 1248.45 102.823L1248.48 102.046C1248.97 102.065 1249.37 101.968 1249.67 101.757C1249.98 101.522 1250 101.214 1249.74 100.834L1240.38 86.0486C1239.93 85.3656 1239.57 84.8954 1239.28 84.6379C1239.02 84.3567 1238.66 84.1833 1238.22 84.1176L1238.25 83.341C1238.57 83.3775 1239.03 83.4318 1239.65 83.5039C1240.26 83.5513 1240.87 83.586 1241.46 83.6078C1242.27 83.6379 1243.1 83.6561 1243.94 83.6624C1244.8 83.645 1245.43 83.6312 1245.83 83.6212ZM1245.91 93.3249C1245.91 93.3249 1245.92 93.3994 1245.94 93.5482C1245.99 93.6979 1246.03 93.86 1246.08 94.0344C1246.14 94.2097 1246.18 94.2973 1246.18 94.2973L1243.52 97.4943C1242.82 98.3325 1242.44 99.0836 1242.37 99.7474C1242.3 100.387 1242.51 100.888 1242.99 101.251C1243.47 101.615 1244.14 101.849 1245 101.955L1244.98 102.695C1244.53 102.654 1244.03 102.623 1243.46 102.602C1242.89 102.556 1242.34 102.523 1241.8 102.503C1241.26 102.458 1240.79 102.429 1240.39 102.414C1239.83 102.393 1239.32 102.387 1238.88 102.395C1238.43 102.379 1238.03 102.388 1237.65 102.424L1237.68 101.684C1238.18 101.604 1238.68 101.376 1239.18 100.999C1239.71 100.599 1240.34 99.9808 1241.06 99.1435L1245.91 93.3249ZM1255.81 83.9902L1255.79 84.7298C1255.29 84.8102 1254.75 85.0618 1254.17 85.4846C1253.61 85.9083 1253.02 86.516 1252.41 87.3077L1248.01 92.7728C1248.01 92.7728 1247.98 92.6979 1247.94 92.5482C1247.92 92.3747 1247.89 92.2131 1247.84 92.0634C1247.8 91.9136 1247.78 91.8387 1247.78 91.8387L1250.44 88.42C1251.04 87.6274 1251.42 86.9626 1251.58 86.4257C1251.75 85.8888 1251.68 85.4542 1251.37 85.1218C1251.06 84.7895 1250.46 84.5823 1249.57 84.5002L1249.6 83.7606C1250.26 83.8098 1250.85 83.8564 1251.37 83.9001C1251.91 83.9448 1252.48 83.9781 1253.07 84C1253.64 84.0209 1254.14 84.0273 1254.59 84.019C1255.03 84.0108 1255.44 84.0012 1255.81 83.9902ZM1264.45 83.9024L1263.71 106.571C1263.67 107.656 1263.95 108.394 1264.56 108.787C1265.16 109.18 1266.01 109.396 1267.09 109.436L1267.07 110.213C1266.5 110.167 1265.71 110.101 1264.7 110.014C1263.69 109.952 1262.61 109.9 1261.45 109.857C1260.64 109.827 1259.83 109.81 1259.05 109.805C1258.25 109.825 1257.65 109.84 1257.23 109.849L1257.26 109.072C1258.12 109.104 1258.73 108.954 1259.08 108.622C1259.46 108.315 1259.67 107.705 1259.7 106.793L1260.31 88.1924C1260.35 87.083 1260.19 86.2626 1259.84 85.7312C1259.49 85.1752 1258.79 84.878 1257.76 84.8397L1257.78 84.0632C1258.57 84.1663 1259.33 84.2315 1260.07 84.2588C1260.89 84.2889 1261.66 84.2806 1262.41 84.234C1263.15 84.1627 1263.83 84.0522 1264.45 83.9024ZM1270.34 84.0088C1271.62 84.0561 1272.75 84.456 1273.74 85.2083C1274.75 85.9368 1275.53 86.99 1276.08 88.3678C1276.63 89.7456 1276.87 91.4453 1276.8 93.4669C1276.75 94.9461 1276.53 96.3449 1276.14 97.6634C1275.75 98.9573 1275.19 100.096 1274.44 101.081C1273.71 102.041 1272.81 102.798 1271.73 103.35C1270.66 103.878 1269.39 104.115 1267.93 104.062C1266.85 104.021 1265.9 103.752 1265.07 103.252C1264.28 102.754 1263.72 102.141 1263.39 101.413L1263.78 100.909C1264.08 101.537 1264.51 102.059 1265.06 102.474C1265.64 102.891 1266.36 103.115 1267.22 103.147C1268.51 103.194 1269.52 102.824 1270.26 102.037C1271.03 101.226 1271.58 100.124 1271.92 98.7293C1272.27 97.3104 1272.47 95.7011 1272.53 93.9014C1272.59 91.8798 1272.5 90.2472 1272.24 89.0036C1271.99 87.7354 1271.58 86.8068 1271 86.2179C1270.43 85.6044 1269.73 85.2821 1268.89 85.2511C1267.78 85.2101 1266.75 85.6165 1265.81 86.4703C1264.9 87.325 1264.31 88.6363 1264.05 90.404L1263.71 89.6138C1264.09 87.7766 1264.88 86.3741 1266.07 85.4061C1267.29 84.4144 1268.71 83.9486 1270.34 84.0088ZM1286.47 75.2007L1285.62 100.754C1285.59 101.789 1285.76 102.499 1286.15 102.884C1286.55 103.269 1287.24 103.479 1288.2 103.515L1288.17 104.291C1287.76 104.251 1287.1 104.202 1286.22 104.145C1285.33 104.063 1284.44 104.005 1283.56 103.973C1282.67 103.94 1281.77 103.931 1280.85 103.947C1279.97 103.939 1279.3 103.939 1278.86 103.947L1278.88 103.17C1279.84 103.206 1280.53 103.046 1280.93 102.691C1281.36 102.337 1281.6 101.642 1281.63 100.606L1282.33 79.4907C1282.36 78.3813 1282.21 77.5609 1281.85 77.0295C1281.5 76.4735 1280.81 76.1763 1279.77 76.1381L1279.8 75.3615C1280.59 75.4646 1281.35 75.5298 1282.09 75.5572C1282.9 75.5872 1283.68 75.5789 1284.42 75.5323C1285.16 75.461 1285.85 75.3505 1286.47 75.2007ZM1299.48 85.0859C1301.13 85.1469 1302.58 85.5463 1303.84 86.2839C1305.1 87.0216 1306.09 88.1442 1306.8 89.6516C1307.52 91.1591 1307.84 93.1085 1307.76 95.4998C1307.68 97.8912 1307.23 99.8123 1306.42 101.263C1305.61 102.69 1304.55 103.724 1303.24 104.367C1301.94 104.985 1300.46 105.264 1298.81 105.203C1297.18 105.143 1295.73 104.756 1294.44 104.042C1293.16 103.303 1292.16 102.193 1291.45 100.71C1290.75 99.2032 1290.45 97.2543 1290.53 94.8629C1290.61 92.4716 1291.04 90.5499 1291.83 89.0981C1292.64 87.6471 1293.71 86.6007 1295.04 85.9587C1296.37 85.3167 1297.85 85.0257 1299.48 85.0859ZM1299.45 85.8255C1298.17 85.7781 1297.1 86.479 1296.24 87.9281C1295.37 89.3526 1294.89 91.7166 1294.78 95.0201C1294.67 98.3236 1295 100.718 1295.76 102.202C1296.53 103.662 1297.55 104.416 1298.84 104.463C1300.09 104.51 1301.15 103.833 1302.01 102.433C1302.9 101.01 1303.4 98.6462 1303.51 95.3426C1303.61 92.0391 1303.27 89.6446 1302.48 88.1591C1301.72 86.6498 1300.71 85.8719 1299.45 85.8255ZM1322.61 85.941C1323.33 85.9675 1323.92 86.1377 1324.41 86.4518C1324.92 86.7667 1325.29 87.163 1325.52 87.6405C1325.77 88.0943 1325.89 88.6047 1325.87 89.1717C1325.85 89.8867 1325.61 90.4948 1325.15 90.9961C1324.71 91.4737 1324.14 91.6993 1323.42 91.6728C1322.81 91.6501 1322.28 91.4456 1321.85 91.0594C1321.44 90.6741 1321.25 90.161 1321.27 89.52C1321.29 88.9776 1321.44 88.5265 1321.72 88.1667C1322.03 87.7832 1322.37 87.4874 1322.75 87.2791C1322.51 87.0728 1322.22 86.9756 1321.87 86.9875C1321.21 86.9875 1320.58 87.1866 1320 87.5848C1319.42 87.9583 1318.92 88.4582 1318.51 89.0846C1318.09 89.6864 1317.76 90.3406 1317.52 91.0474C1317.27 91.7541 1317.14 92.4157 1317.12 93.032L1316.84 101.537C1316.8 102.745 1317.11 103.571 1317.76 104.015C1318.41 104.434 1319.33 104.665 1320.51 104.709L1320.49 105.486C1319.92 105.44 1319.11 105.385 1318.05 105.322C1317.01 105.234 1315.92 105.169 1314.76 105.126C1313.87 105.093 1312.98 105.085 1312.09 105.102C1311.21 105.093 1310.53 105.093 1310.06 105.1L1310.08 104.324C1311.05 104.359 1311.73 104.199 1312.14 103.844C1312.57 103.49 1312.8 102.795 1312.83 101.76L1313.22 90.1479C1313.25 89.0385 1313.1 88.2181 1312.74 87.6867C1312.39 87.1307 1311.7 86.8335 1310.66 86.7952L1310.69 86.0187C1311.47 86.1218 1312.24 86.187 1312.98 86.2143C1313.81 86.2453 1314.59 86.237 1315.31 86.1895C1316.05 86.1182 1316.74 86.0077 1317.36 85.8579L1317.22 90.1106C1317.54 89.4066 1317.95 88.7309 1318.47 88.0835C1318.98 87.436 1319.59 86.9155 1320.3 86.5219C1321 86.1037 1321.77 85.9101 1322.61 85.941ZM1335.94 86.4338C1338.11 86.514 1339.79 87.2302 1340.98 88.5824C1342.17 89.9346 1342.72 92.0282 1342.62 94.8633L1329.87 94.3918L1329.82 93.6865L1338.73 94.0158C1338.79 92.8087 1338.73 91.6957 1338.54 90.6767C1338.35 89.6331 1338.04 88.7944 1337.59 88.1608C1337.14 87.5272 1336.53 87.1962 1335.77 87.168C1334.71 87.1288 1333.77 87.6616 1332.94 88.7665C1332.14 89.8477 1331.61 91.6177 1331.36 94.0767L1331.46 94.2657C1331.43 94.6099 1331.39 94.9911 1331.35 95.4093C1331.31 95.8029 1331.29 96.1969 1331.28 96.5913C1331.22 98.2924 1331.43 99.7319 1331.91 100.91C1332.39 102.088 1333.04 102.988 1333.86 103.61C1334.68 104.208 1335.52 104.523 1336.38 104.555C1337.05 104.58 1337.69 104.505 1338.31 104.331C1338.96 104.132 1339.58 103.797 1340.16 103.325C1340.75 102.828 1341.27 102.144 1341.75 101.273L1342.48 101.596C1342.15 102.424 1341.67 103.233 1341.03 104.023C1340.38 104.814 1339.57 105.451 1338.59 105.933C1337.62 106.39 1336.49 106.596 1335.21 106.548C1333.48 106.484 1331.99 106.047 1330.73 105.235C1329.48 104.399 1328.53 103.241 1327.89 101.761C1327.24 100.28 1326.95 98.542 1327.02 96.5451C1327.09 94.3509 1327.51 92.4905 1328.28 90.9638C1329.04 89.437 1330.08 88.2906 1331.39 87.5244C1332.72 86.7345 1334.24 86.371 1335.94 86.4338Z" fill="white"/>
</svg>
